<?xml version="1.0" encoding="UTF-8"?>
<!DOCTYPE svg PUBLIC "-//W3C//DTD SVG 1.1//EN" "http://www.w3.org/Graphics/SVG/1.1/DTD/svg11.dtd">
<svg xmlns="http://www.w3.org/2000/svg" version="1.1" width="192px" height="192px" style="shape-rendering:geometricPrecision; text-rendering:geometricPrecision; image-rendering:optimizeQuality; fill-rule:evenodd; clip-rule:evenodd" xmlns:xlink="http://www.w3.org/1999/xlink">
<g><path style="opacity:0.996" fill="#b1b2fb" d="M 92.5,24.5 C 90.7259,23.119 89.2259,23.4523 88,25.5C 82.3514,35.13 77.518,45.13 73.5,55.5C 72.5078,59.7828 72.1744,64.1161 72.5,68.5C 71.2101,67.9423 70.3768,66.9423 70,65.5C 69.1473,61.5314 68.4807,57.5314 68,53.5C 67.5774,52.0439 66.7441,51.5439 65.5,52C 62.7692,54.6259 60.9358,57.7926 60,61.5C 59.9976,66.6875 59.831,71.5209 59.5,76C 61.3008,76.3173 61.6341,76.984 60.5,78C 61.1667,78.3333 61.8333,78.6667 62.5,79C 61.3595,79.7412 61.3595,80.5745 62.5,81.5C 63.7357,82.3567 65.069,83.0234 66.5,83.5C 70.3371,86.8373 73.8371,90.504 77,94.5C 77.3333,93.8333 77.6667,93.1667 78,92.5C 78.6667,93.8333 79.3333,95.1667 80,96.5C 80.3333,96.1667 80.6667,95.8333 81,95.5C 83.8913,98.3548 87.3913,99.8548 91.5,100C 90.8333,100.333 90.1667,100.667 89.5,101C 91.2464,101.471 92.913,102.138 94.5,103C 93.8333,103.333 93.1667,103.667 92.5,104C 92.7188,107.682 92.7188,111.516 92.5,115.5C 89.3347,112.753 86.0013,110.253 82.5,108C 83.3402,106.334 82.8402,106.167 81,107.5C 75.3272,106.081 70.4939,103.248 66.5,99C 67.8331,97.1598 67.6665,96.6598 66,97.5C 58.4751,85.8766 55.8085,73.2099 58,59.5C 60.5257,52.1153 63.859,45.1153 68,38.5C 69.8946,30.6308 72.3946,22.6308 75.5,14.5C 75.5106,12.9826 76.1772,11.8159 77.5,11C 76.944,10.6174 76.6107,10.1174 76.5,9.5C 89.834,5.84505 95.1673,10.8451 92.5,24.5 Z"/></g>
<g><path style="opacity:0.996" fill="#b2b3fa" d="M 178.5,33.5 C 177.526,32.365 176.359,31.365 175,30.5C 173.207,33.2953 171.04,35.7953 168.5,38C 160.921,43.3748 153.421,48.8748 146,54.5C 145.667,54.1667 145.333,53.8333 145,53.5C 144.544,54.7441 145.044,55.5774 146.5,56C 141.403,62.908 138.07,70.908 136.5,80C 136.257,85.5826 138.924,87.7493 144.5,86.5C 150.805,92.1006 154.805,99.1006 156.5,107.5C 156.217,108.289 155.717,108.956 155,109.5C 154.781,108.062 154.281,106.729 153.5,105.5C 152.809,108.353 151.476,110.853 149.5,113C 151.007,113.837 151.507,115.004 151,116.5C 147.858,119.638 144.192,121.972 140,123.5C 136.894,122.547 134.061,122.547 131.5,123.5C 130.833,122.833 130.167,122.167 129.5,121.5C 124.192,123.813 119.359,123.48 115,120.5C 113.275,121.464 111.441,122.131 109.5,122.5C 109.875,120.302 110.542,118.302 111.5,116.5C 112.144,114.936 113.144,112.936 114.5,110.5C 116.48,110.303 118.48,110.97 120.5,112.5C 121.696,112.154 121.696,111.654 120.5,111C 121.825,111.148 122.992,110.982 124,110.5C 124.333,111.5 124.667,112.5 125,113.5C 127.194,110.983 129.194,111.316 131,114.5C 132.897,112.984 135.064,112.317 137.5,112.5C 137.351,111.448 137.517,110.448 138,109.5C 138.333,110.833 138.667,112.167 139,113.5C 140.688,112.675 140.855,111.675 139.5,110.5C 140.651,109.269 141.817,109.269 143,110.5C 145.543,109.124 145.709,107.957 143.5,107C 148.275,100.482 146.942,95.4824 139.5,92C 139.833,91.6667 140.167,91.3333 140.5,91C 138.413,90.2078 136.579,89.0412 135,87.5C 134.626,82.3813 134.792,77.548 135.5,73C 135.238,70.4528 134.738,67.9528 134,65.5C 127.026,70.1294 120.026,74.796 113,79.5C 108.99,79.8806 104.99,79.2139 101,77.5C 98.8039,78.7524 96.8039,78.4191 95,76.5C 91.6964,79.1545 88.0298,79.1545 84,76.5C 83.6667,76.8333 83.3333,77.1667 83,77.5C 81.3523,76.283 79.519,75.4497 77.5,75C 76.3076,72.6451 74.641,70.8118 72.5,69.5C 73.9587,69.5674 75.2921,69.2341 76.5,68.5C 86.5069,67.1951 96.5069,67.1951 106.5,68.5C 101.365,69.8373 101.365,71.6706 106.5,74C 110.987,76.0391 115.32,75.7057 119.5,73C 126.118,65.3894 133.451,58.7228 141.5,53C 143.977,40.5658 149.977,29.2325 159.5,19C 157.942,18.79 156.609,18.29 155.5,17.5C 169.22,14.2283 176.887,19.5617 178.5,33.5 Z"/></g>
<g><path style="opacity:0.996" fill="#a8a8fb" d="M 155.5,17.5 C 156.609,18.29 157.942,18.79 159.5,19C 149.977,29.2325 143.977,40.5658 141.5,53C 133.451,58.7228 126.118,65.3894 119.5,73C 115.32,75.7057 110.987,76.0391 106.5,74C 101.365,71.6706 101.365,69.8373 106.5,68.5C 107.167,68.5 107.833,68.5 108.5,68.5C 106.666,72.1244 107.833,73.791 112,73.5C 115.057,73.2903 117.557,71.957 119.5,69.5C 129.615,54.5936 139.448,39.5936 149,24.5C 150.009,22.9751 150.509,21.3084 150.5,19.5C 152.167,18.8333 153.833,18.1667 155.5,17.5 Z"/></g>
<g><path style="opacity:0.996" fill="#9091ec" d="M 92.5,24.5 C 91.8509,28.9512 90.6842,33.2845 89,37.5C 84.5303,47.7493 80.3636,58.0826 76.5,68.5C 75.2921,69.2341 73.9587,69.5674 72.5,69.5C 72.5,69.1667 72.5,68.8333 72.5,68.5C 72.1744,64.1161 72.5078,59.7828 73.5,55.5C 77.518,45.13 82.3514,35.13 88,25.5C 89.2259,23.4523 90.7259,23.119 92.5,24.5 Z"/></g>
<g><path style="opacity:0.996" fill="#a3a3fa" d="M 178.5,33.5 C 178.483,35.5648 178.15,37.5648 177.5,39.5C 176.85,39.1961 176.183,38.8627 175.5,38.5C 168.185,47.649 160.018,55.9823 151,63.5C 148.394,68.4352 145.394,73.1019 142,77.5C 141.833,78.8333 141.667,80.1667 141.5,81.5C 141.585,83.3328 142.252,84.6661 143.5,85.5C 143.833,85.5 144.167,85.5 144.5,85.5C 144.5,85.8333 144.5,86.1667 144.5,86.5C 138.924,87.7493 136.257,85.5826 136.5,80C 138.07,70.908 141.403,62.908 146.5,56C 145.044,55.5774 144.544,54.7441 145,53.5C 145.333,53.8333 145.667,54.1667 146,54.5C 153.421,48.8748 160.921,43.3748 168.5,38C 171.04,35.7953 173.207,33.2953 175,30.5C 176.359,31.365 177.526,32.365 178.5,33.5 Z"/></g>
<g><path style="opacity:0.996" fill="#9e9efb" d="M 76.5,9.5 C 76.6107,10.1174 76.944,10.6174 77.5,11C 76.1772,11.8159 75.5106,12.9826 75.5,14.5C 72.5479,15.3589 70.7146,17.3589 70,20.5C 66.5844,34.7469 61.5844,48.4135 55,61.5C 53.5699,72.225 53.7366,82.725 55.5,93C 54.252,94.3997 53.252,95.8997 52.5,97.5C 51.1201,97.0377 50.4534,96.0377 50.5,94.5C 51.7572,80.8113 53.2572,67.1446 55,53.5C 59.8863,46.3478 62.7196,38.3478 63.5,29.5C 66.4048,23.9989 68.7381,18.3322 70.5,12.5C 72.0301,10.6535 74.0301,9.65353 76.5,9.5 Z"/></g>
<g><path style="opacity:0.996" fill="#b8b9fa" d="M 72.5,68.5 C 72.5,68.8333 72.5,69.1667 72.5,69.5C 74.641,70.8118 76.3076,72.6451 77.5,75C 79.519,75.4497 81.3523,76.283 83,77.5C 83.3333,77.1667 83.6667,76.8333 84,76.5C 88.0298,79.1545 91.6964,79.1545 95,76.5C 96.8039,78.4191 98.8039,78.7524 101,77.5C 104.99,79.2139 108.99,79.8806 113,79.5C 120.026,74.796 127.026,70.1294 134,65.5C 134.738,67.9528 135.238,70.4528 135.5,73C 134.792,77.548 134.626,82.3813 135,87.5C 136.579,89.0412 138.413,90.2078 140.5,91C 140.167,91.3333 139.833,91.6667 139.5,92C 146.942,95.4824 148.275,100.482 143.5,107C 145.709,107.957 145.543,109.124 143,110.5C 141.817,109.269 140.651,109.269 139.5,110.5C 140.855,111.675 140.688,112.675 139,113.5C 138.667,112.167 138.333,110.833 138,109.5C 137.517,110.448 137.351,111.448 137.5,112.5C 135.064,112.317 132.897,112.984 131,114.5C 129.194,111.316 127.194,110.983 125,113.5C 124.667,112.5 124.333,111.5 124,110.5C 122.992,110.982 121.825,111.148 120.5,111C 121.696,111.654 121.696,112.154 120.5,112.5C 118.48,110.97 116.48,110.303 114.5,110.5C 113.144,112.936 112.144,114.936 111.5,116.5C 112.147,110.269 110.147,105.102 105.5,101C 99.4627,99.2102 95.7961,101.377 94.5,107.5C 93.5206,110.625 93.1872,113.958 93.5,117.5C 92.6618,117.158 92.3284,116.492 92.5,115.5C 92.7188,111.516 92.7188,107.682 92.5,104C 93.1667,103.667 93.8333,103.333 94.5,103C 92.913,102.138 91.2464,101.471 89.5,101C 90.1667,100.667 90.8333,100.333 91.5,100C 87.3913,99.8548 83.8913,98.3548 81,95.5C 80.6667,95.8333 80.3333,96.1667 80,96.5C 79.3333,95.1667 78.6667,93.8333 78,92.5C 77.6667,93.1667 77.3333,93.8333 77,94.5C 73.8371,90.504 70.3371,86.8373 66.5,83.5C 65.069,83.0234 63.7357,82.3567 62.5,81.5C 61.3595,80.5745 61.3595,79.7412 62.5,79C 61.8333,78.6667 61.1667,78.3333 60.5,78C 61.6341,76.984 61.3008,76.3173 59.5,76C 59.831,71.5209 59.9976,66.6875 60,61.5C 60.9358,57.7926 62.7692,54.6259 65.5,52C 66.7441,51.5439 67.5774,52.0439 68,53.5C 68.4807,57.5314 69.1473,61.5314 70,65.5C 70.3768,66.9423 71.2101,67.9423 72.5,68.5 Z"/></g>
<g><path style="opacity:0.996" fill="#8485e5" d="M 150.5,19.5 C 150.509,21.3084 150.009,22.9751 149,24.5C 139.448,39.5936 129.615,54.5936 119.5,69.5C 117.557,71.957 115.057,73.2903 112,73.5C 107.833,73.791 106.666,72.1244 108.5,68.5C 108.5,67.8333 108.833,67.5 109.5,67.5C 109.81,68.7383 110.31,68.7383 111,67.5C 115.659,58.1832 121.326,49.5165 128,41.5C 128.692,40.5632 128.525,39.8966 127.5,39.5C 133.959,31.3695 141.626,24.7028 150.5,19.5 Z"/></g>
<g><path style="opacity:0.782" fill="#59598f" d="M 127.5,39.5 C 128.525,39.8966 128.692,40.5632 128,41.5C 121.326,49.5165 115.659,58.1832 111,67.5C 110.31,68.7383 109.81,68.7383 109.5,67.5C 114.325,57.3557 120.325,48.0224 127.5,39.5 Z"/></g>
<g><path style="opacity:0.996" fill="#8082e4" d="M 177.5,39.5 C 176.397,43.497 174.731,47.1637 172.5,50.5C 165.249,57.2488 158.083,64.2488 151,71.5C 149.039,74.4628 146.706,77.1294 144,79.5C 143.517,80.448 143.351,81.448 143.5,82.5C 143.5,83.5 143.5,84.5 143.5,85.5C 142.252,84.6661 141.585,83.3328 141.5,81.5C 141.667,80.1667 141.833,78.8333 142,77.5C 145.394,73.1019 148.394,68.4352 151,63.5C 160.018,55.9823 168.185,47.649 175.5,38.5C 176.183,38.8627 176.85,39.1961 177.5,39.5 Z"/></g>
<g><path style="opacity:0.996" fill="#a8a9fa" d="M 75.5,14.5 C 72.3946,22.6308 69.8946,30.6308 68,38.5C 63.859,45.1153 60.5257,52.1153 58,59.5C 55.8085,73.2099 58.4751,85.8766 66,97.5C 67.6665,96.6598 67.8331,97.1598 66.5,99C 70.4939,103.248 75.3272,106.081 81,107.5C 82.8402,106.167 83.3402,106.334 82.5,108C 86.0013,110.253 89.3347,112.753 92.5,115.5C 92.3284,116.492 92.6618,117.158 93.5,117.5C 94.3084,120.45 95.6418,123.117 97.5,125.5C 87.2964,122.745 77.2964,118.745 67.5,113.5C 66.4787,115.188 65.1454,116.521 63.5,117.5C 66.0271,109.867 64.3604,103.367 58.5,98C 56.5273,97.5045 54.5273,97.3379 52.5,97.5C 53.252,95.8997 54.252,94.3997 55.5,93C 53.7366,82.725 53.5699,72.225 55,61.5C 61.5844,48.4135 66.5844,34.7469 70,20.5C 70.7146,17.3589 72.5479,15.3589 75.5,14.5 Z"/></g>
<g><path style="opacity:0.996" fill="#6466b3" d="M 172.5,50.5 C 170.913,54.6829 168.579,58.3495 165.5,61.5C 165.44,60.9569 165.107,60.6236 164.5,60.5C 160.724,64.0993 157.557,68.0993 155,72.5C 150.949,75.7274 147.115,79.0608 143.5,82.5C 143.351,81.448 143.517,80.448 144,79.5C 146.706,77.1294 149.039,74.4628 151,71.5C 158.083,64.2488 165.249,57.2488 172.5,50.5 Z"/></g>
<g><path style="opacity:0.996" fill="#43446c" d="M 55.5,29.5 C 55.2269,34.4402 53.3936,39.1068 50,43.5C 46.217,55.8505 42.217,68.1838 38,80.5C 37.1841,81.8228 36.0174,82.4894 34.5,82.5C 39.5936,63.9944 46.5936,46.3278 55.5,29.5 Z"/></g>
<g><path style="opacity:0.996" fill="#8e8ff4" d="M 68.5,13.5 C 68.8417,12.6618 69.5084,12.3284 70.5,12.5C 68.7381,18.3322 66.4048,23.9989 63.5,29.5C 62.7196,38.3478 59.8863,46.3478 55,53.5C 53.2572,67.1446 51.7572,80.8113 50.5,94.5C 50.4534,96.0377 51.1201,97.0377 52.5,97.5C 50.0152,99.6523 48.3485,102.319 47.5,105.5C 45.6797,111.57 46.6797,117.237 50.5,122.5C 49.1779,122.67 48.0113,122.337 47,121.5C 45.5259,118.366 43.6926,115.533 41.5,113C 40.4031,107.54 40.2364,102.04 41,96.5C 45.9557,89.3655 48.4557,81.3655 48.5,72.5C 49.5564,66.8254 50.7231,61.1587 52,55.5C 56.0347,44.7293 59.7014,33.7293 63,22.5C 64.3712,19.1199 66.5379,16.2866 69.5,14C 69.2716,13.6012 68.9382,13.4346 68.5,13.5 Z"/></g>
<g><path style="opacity:0.388" fill="#505183" d="M 165.5,61.5 C 159.245,70.0923 152.245,78.0923 144.5,85.5C 144.167,85.5 143.833,85.5 143.5,85.5C 143.5,84.5 143.5,83.5 143.5,82.5C 147.115,79.0608 150.949,75.7274 155,72.5C 157.557,68.0993 160.724,64.0993 164.5,60.5C 165.107,60.6236 165.44,60.9569 165.5,61.5 Z"/></g>
<g><path style="opacity:0.996" fill="#5d5fa8" d="M 61.5,20.5 C 56.1757,33.9717 51.3424,47.6384 47,61.5C 46.4518,65.1704 45.9518,68.8371 45.5,72.5C 44.0459,75.4081 42.5459,78.4081 41,81.5C 38.0469,83.5015 35.0469,85.5015 32,87.5C 30.3838,91.6751 28.3838,95.6751 26,99.5C 25.4039,107.581 25.9039,115.581 27.5,123.5C 26.5041,123.586 25.6708,123.252 25,122.5C 20.7826,111.275 21.9493,100.775 28.5,91C 28.2716,90.6012 27.9382,90.4346 27.5,90.5C 29.1236,87.2099 31.4569,84.5433 34.5,82.5C 36.0174,82.4894 37.1841,81.8228 38,80.5C 42.217,68.1838 46.217,55.8505 50,43.5C 53.3936,39.1068 55.2269,34.4402 55.5,29.5C 57.2651,26.2911 59.2651,23.2911 61.5,20.5 Z"/></g>
<g><path style="opacity:0.996" fill="#10193e" d="M 52.5,97.5 C 54.5273,97.3379 56.5273,97.5045 58.5,98C 64.3604,103.367 66.0271,109.867 63.5,117.5C 62.8763,119.754 61.543,121.421 59.5,122.5C 59.5858,121.504 59.2524,120.671 58.5,120C 55.9925,119.907 53.8259,119.074 52,117.5C 50.5171,113.304 49.0171,109.304 47.5,105.5C 48.3485,102.319 50.0152,99.6523 52.5,97.5 Z"/></g>
<g><path style="opacity:0.996" fill="#cbccce" d="M 55.5,100.5 C 61.4877,100.664 62.821,103.164 59.5,108C 53.2016,108.495 51.8682,105.995 55.5,100.5 Z"/></g>
<g><path style="opacity:0.996" fill="#a6a6f9" d="M 156.5,107.5 C 158.99,113.463 159.99,119.796 159.5,126.5C 157.839,123.555 156.672,120.221 156,116.5C 154.553,124.863 149.72,130.03 141.5,132C 137.113,132.226 132.779,132.726 128.5,133.5C 126.702,131.668 124.868,131.335 123,132.5C 118.404,130.984 113.737,129.651 109,128.5C 108.586,128.957 108.086,129.291 107.5,129.5C 104.557,128.756 101.557,128.256 98.5,128C 97.7476,127.329 97.4142,126.496 97.5,125.5C 100.272,126.767 102.939,126.767 105.5,125.5C 106.833,124.5 108.167,123.5 109.5,122.5C 111.441,122.131 113.275,121.464 115,120.5C 119.359,123.48 124.192,123.813 129.5,121.5C 130.167,122.167 130.833,122.833 131.5,123.5C 134.061,122.547 136.894,122.547 140,123.5C 144.192,121.972 147.858,119.638 151,116.5C 151.507,115.004 151.007,113.837 149.5,113C 151.476,110.853 152.809,108.353 153.5,105.5C 154.281,106.729 154.781,108.062 155,109.5C 155.717,108.956 156.217,108.289 156.5,107.5 Z"/></g>
<g><path style="opacity:0.996" fill="#131c42" d="M 111.5,116.5 C 110.542,118.302 109.875,120.302 109.5,122.5C 108.167,123.5 106.833,124.5 105.5,125.5C 103.34,124.266 101.173,122.933 99,121.5C 96.5588,116.996 95.0588,112.329 94.5,107.5C 95.7961,101.377 99.4627,99.2102 105.5,101C 110.147,105.102 112.147,110.269 111.5,116.5 Z"/></g>
<g><path style="opacity:0.996" fill="#c6c7c8" d="M 100.5,102.5 C 106.729,102.027 108.395,104.36 105.5,109.5C 99.8045,110.446 98.1378,108.112 100.5,102.5 Z"/></g>
<g><path style="opacity:0.996" fill="#7779dd" d="M 68.5,13.5 C 68.9382,13.4346 69.2716,13.6012 69.5,14C 66.5379,16.2866 64.3712,19.1199 63,22.5C 59.7014,33.7293 56.0347,44.7293 52,55.5C 50.7231,61.1587 49.5564,66.8254 48.5,72.5C 46.6743,77.1034 44.8409,81.7701 43,86.5C 35.8393,92.1622 33.1726,99.4955 35,108.5C 36.4301,111.353 37.2634,114.353 37.5,117.5C 40.5406,117.406 42.2072,118.906 42.5,122C 47.4318,127.344 53.4318,130.844 60.5,132.5C 61.7387,132.058 62.7387,131.391 63.5,130.5C 63.5,131.167 63.5,131.833 63.5,132.5C 63.5,133.833 63.5,135.167 63.5,136.5C 48.9304,135.258 38.097,128.258 31,115.5C 30.7377,108.954 31.2377,102.454 32.5,96C 35.2389,94.2574 36.7389,91.7574 37,88.5C 42.5546,84.7095 45.388,79.3762 45.5,72.5C 45.9518,68.8371 46.4518,65.1704 47,61.5C 51.3424,47.6384 56.1757,33.9717 61.5,20.5C 63.5,17.8333 65.8333,15.5 68.5,13.5 Z"/></g>
<g><path style="opacity:0.996" fill="#8285ef" d="M 48.5,72.5 C 48.4557,81.3655 45.9557,89.3655 41,96.5C 40.2364,102.04 40.4031,107.54 41.5,113C 43.6926,115.533 45.5259,118.366 47,121.5C 48.0113,122.337 49.1779,122.67 50.5,122.5C 51.5,123.167 52.5,123.833 53.5,124.5C 55.6684,125.63 58.0017,125.63 60.5,124.5C 65.7139,125.774 70.3806,128.107 74.5,131.5C 75.1924,130.975 75.6924,130.308 76,129.5C 76.4419,131.679 77.4419,132.345 79,131.5C 81.6699,132.224 83.1699,133.891 83.5,136.5C 79.9221,137.589 76.2554,137.755 72.5,137C 69.1757,135.036 66.1757,132.87 63.5,130.5C 62.7387,131.391 61.7387,132.058 60.5,132.5C 53.4318,130.844 47.4318,127.344 42.5,122C 42.2072,118.906 40.5406,117.406 37.5,117.5C 37.2634,114.353 36.4301,111.353 35,108.5C 33.1726,99.4955 35.8393,92.1622 43,86.5C 44.8409,81.7701 46.6743,77.1034 48.5,72.5 Z"/></g>
<g><path style="opacity:0.996" fill="#9899f9" d="M 97.5,125.5 C 97.4142,126.496 97.7476,127.329 98.5,128C 101.557,128.256 104.557,128.756 107.5,129.5C 108.086,129.291 108.586,128.957 109,128.5C 113.737,129.651 118.404,130.984 123,132.5C 124.868,131.335 126.702,131.668 128.5,133.5C 132.779,132.726 137.113,132.226 141.5,132C 149.72,130.03 154.553,124.863 156,116.5C 156.672,120.221 157.839,123.555 159.5,126.5C 159.265,132.007 158.265,137.34 156.5,142.5C 154.824,141.817 154.157,140.483 154.5,138.5C 150.87,139.641 147.203,140.808 143.5,142C 125.405,142.291 107.072,140.458 88.5,136.5C 89.9418,135.18 90.6085,133.514 90.5,131.5C 87.9439,132.702 85.6106,134.369 83.5,136.5C 83.1699,133.891 81.6699,132.224 79,131.5C 77.4419,132.345 76.4419,131.679 76,129.5C 75.6924,130.308 75.1924,130.975 74.5,131.5C 70.3806,128.107 65.7139,125.774 60.5,124.5C 58.0017,125.63 55.6684,125.63 53.5,124.5C 55.8984,124.741 57.8984,124.074 59.5,122.5C 61.543,121.421 62.8763,119.754 63.5,117.5C 65.1454,116.521 66.4787,115.188 67.5,113.5C 77.2964,118.745 87.2964,122.745 97.5,125.5 Z"/></g>
<g><path style="opacity:0.996" fill="#040518" d="M 94.5,107.5 C 95.0588,112.329 96.5588,116.996 99,121.5C 101.173,122.933 103.34,124.266 105.5,125.5C 102.939,126.767 100.272,126.767 97.5,125.5C 95.6418,123.117 94.3084,120.45 93.5,117.5C 93.1872,113.958 93.5206,110.625 94.5,107.5 Z"/></g>
<g><path style="opacity:0.996" fill="#08081c" d="M 47.5,105.5 C 49.0171,109.304 50.5171,113.304 52,117.5C 53.8259,119.074 55.9925,119.907 58.5,120C 59.2524,120.671 59.5858,121.504 59.5,122.5C 57.8984,124.074 55.8984,124.741 53.5,124.5C 52.5,123.833 51.5,123.167 50.5,122.5C 46.6797,117.237 45.6797,111.57 47.5,105.5 Z"/></g>
<g><path style="opacity:0.996" fill="#303162" d="M 19.5,117.5 C 26.3555,134.838 39.0221,145.671 57.5,150C 84.3591,158.61 111.692,161.443 139.5,158.5C 142.528,158.035 145.362,157.035 148,155.5C 148.399,155.728 148.565,156.062 148.5,156.5C 146.094,159.91 143.094,162.576 139.5,164.5C 136.833,164.167 134.167,163.833 131.5,163.5C 126.35,162.349 121.016,162.183 115.5,163C 109.805,164.106 104.139,165.272 98.5,166.5C 96.7971,164.859 94.6305,163.859 92,163.5C 91.6667,164.167 91.3333,164.833 91,165.5C 89.414,164.624 87.914,163.624 86.5,162.5C 85.5224,162.977 84.6891,163.643 84,164.5C 82.5421,163.253 81.0421,163.253 79.5,164.5C 77.8839,163.885 76.5505,162.885 75.5,161.5C 74.3044,161.846 74.3044,162.346 75.5,163C 74.552,163.483 73.552,163.649 72.5,163.5C 72.6495,162.448 72.4828,161.448 72,160.5C 71.6667,161.833 71.3333,163.167 71,164.5C 68.5593,162.477 65.8927,160.811 63,159.5C 60.4522,160.417 57.9522,160.084 55.5,158.5C 55.7093,157.914 56.0426,157.414 56.5,157C 54.324,156.837 52.4907,156.004 51,154.5C 50.6667,155.167 50.3333,155.833 50,156.5C 48.7365,154.393 46.9032,153.393 44.5,153.5C 44.6495,152.448 44.4828,151.448 44,150.5C 42.984,151.634 42.3173,151.301 42,149.5C 39.5513,151.613 37.0513,151.446 34.5,149C 35.1667,148.667 35.8333,148.333 36.5,148C 35.2068,147.51 33.8734,147.343 32.5,147.5C 32.741,144.001 31.9076,143.668 30,146.5C 29.2797,144.888 29.4464,143.388 30.5,142C 29.2845,139.904 28.4512,140.071 28,142.5C 27.6401,140.392 26.9734,138.392 26,136.5C 24.3335,137.34 24.1669,136.84 25.5,135C 23.1167,134.935 22.45,134.102 23.5,132.5C 22.6667,130.833 21.8333,129.167 21,127.5C 20.0862,128.654 19.2529,128.487 18.5,127C 18.2047,123.925 18.538,120.758 19.5,117.5 Z"/></g>
<g><path style="opacity:0.996" fill="#51539b" d="M 27.5,123.5 C 32.0618,125.569 35.0618,129.069 36.5,134C 70.5326,150.937 106.866,157.937 145.5,155C 148.641,153.665 151.308,151.832 153.5,149.5C 152.189,152.135 150.522,154.469 148.5,156.5C 148.565,156.062 148.399,155.728 148,155.5C 145.362,157.035 142.528,158.035 139.5,158.5C 127.829,158.667 116.162,158.5 104.5,158C 101.56,156.848 98.5597,155.848 95.5,155C 85.4745,153.497 75.4745,151.83 65.5,150C 56.2344,146.778 47.2344,143.112 38.5,139C 35.886,135.263 32.7193,132.097 29,129.5C 28.4954,127.482 27.9954,125.482 27.5,123.5 Z"/></g>
<g><path style="opacity:0.996" fill="#1f2457" d="M 63.5,130.5 C 66.1757,132.87 69.1757,135.036 72.5,137C 76.2554,137.755 79.9221,137.589 83.5,136.5C 85.6106,134.369 87.9439,132.702 90.5,131.5C 90.6085,133.514 89.9418,135.18 88.5,136.5C 87.1283,137.512 85.795,138.512 84.5,139.5C 75.7067,142.125 68.7067,139.791 63.5,132.5C 63.5,131.833 63.5,131.167 63.5,130.5 Z"/></g>
<g><path style="opacity:0.996" fill="#434480" d="M 27.5,90.5 C 27.9382,90.4346 28.2716,90.6012 28.5,91C 21.9493,100.775 20.7826,111.275 25,122.5C 25.6708,123.252 26.5041,123.586 27.5,123.5C 27.9954,125.482 28.4954,127.482 29,129.5C 32.7193,132.097 35.886,135.263 38.5,139C 47.2344,143.112 56.2344,146.778 65.5,150C 75.4745,151.83 85.4745,153.497 95.5,155C 98.5597,155.848 101.56,156.848 104.5,158C 116.162,158.5 127.829,158.667 139.5,158.5C 111.692,161.443 84.3591,158.61 57.5,150C 39.0221,145.671 26.3555,134.838 19.5,117.5C 19.2082,111.705 19.8749,106.039 21.5,100.5C 21.3764,99.8933 21.0431,99.56 20.5,99.5C 22.4821,96.1897 24.8154,93.1897 27.5,90.5 Z"/></g>
<g><path style="opacity:0.996" fill="#353663" d="M 20.5,99.5 C 21.0431,99.56 21.3764,99.8933 21.5,100.5C 19.8749,106.039 19.2082,111.705 19.5,117.5C 18.538,120.758 18.2047,123.925 18.5,127C 19.2529,128.487 20.0862,128.654 21,127.5C 21.8333,129.167 22.6667,130.833 23.5,132.5C 22.45,134.102 23.1167,134.935 25.5,135C 24.1669,136.84 24.3335,137.34 26,136.5C 26.9734,138.392 27.6401,140.392 28,142.5C 28.4512,140.071 29.2845,139.904 30.5,142C 29.4464,143.388 29.2797,144.888 30,146.5C 31.9076,143.668 32.741,144.001 32.5,147.5C 33.8734,147.343 35.2068,147.51 36.5,148C 35.8333,148.333 35.1667,148.667 34.5,149C 37.0513,151.446 39.5513,151.613 42,149.5C 42.3173,151.301 42.984,151.634 44,150.5C 44.4828,151.448 44.6495,152.448 44.5,153.5C 46.9032,153.393 48.7365,154.393 50,156.5C 50.3333,155.833 50.6667,155.167 51,154.5C 52.4907,156.004 54.324,156.837 56.5,157C 56.0426,157.414 55.7093,157.914 55.5,158.5C 57.9522,160.084 60.4522,160.417 63,159.5C 65.8927,160.811 68.5593,162.477 71,164.5C 71.3333,163.167 71.6667,161.833 72,160.5C 72.4828,161.448 72.6495,162.448 72.5,163.5C 73.552,163.649 74.552,163.483 75.5,163C 74.3044,162.346 74.3044,161.846 75.5,161.5C 76.5505,162.885 77.8839,163.885 79.5,164.5C 81.0421,163.253 82.5421,163.253 84,164.5C 84.6891,163.643 85.5224,162.977 86.5,162.5C 87.914,163.624 89.414,164.624 91,165.5C 91.3333,164.833 91.6667,164.167 92,163.5C 94.6305,163.859 96.7971,164.859 98.5,166.5C 93.8711,168.478 89.2044,170.478 84.5,172.5C 79.0935,172.299 73.7601,171.632 68.5,170.5C 62.4067,169.548 56.4067,168.215 50.5,166.5C 49.0813,165.549 47.4147,165.216 45.5,165.5C 13.6555,152.469 5.32218,130.469 20.5,99.5 Z"/></g>
<g><path style="opacity:0.996" fill="#696bc4" d="M 45.5,72.5 C 45.388,79.3762 42.5546,84.7095 37,88.5C 36.7389,91.7574 35.2389,94.2574 32.5,96C 31.2377,102.454 30.7377,108.954 31,115.5C 38.097,128.258 48.9304,135.258 63.5,136.5C 63.5,135.167 63.5,133.833 63.5,132.5C 68.7067,139.791 75.7067,142.125 84.5,139.5C 87.3054,140.319 90.3054,140.819 93.5,141C 97.336,143.506 101.503,145.339 106,146.5C 113.001,147.5 120.001,148.5 127,149.5C 133.503,149.819 140.003,149.319 146.5,148C 149.237,146.936 151.737,145.436 154,143.5C 154.765,143.57 155.265,143.903 155.5,144.5C 155.107,146.284 154.441,147.95 153.5,149.5C 151.308,151.832 148.641,153.665 145.5,155C 106.866,157.937 70.5326,150.937 36.5,134C 35.0618,129.069 32.0618,125.569 27.5,123.5C 25.9039,115.581 25.4039,107.581 26,99.5C 28.3838,95.6751 30.3838,91.6751 32,87.5C 35.0469,85.5015 38.0469,83.5015 41,81.5C 42.5459,78.4081 44.0459,75.4081 45.5,72.5 Z"/></g>
<g><path style="opacity:0.996" fill="#8587ef" d="M 88.5,136.5 C 107.072,140.458 125.405,142.291 143.5,142C 147.203,140.808 150.87,139.641 154.5,138.5C 154.157,140.483 154.824,141.817 156.5,142.5C 156.672,143.492 156.338,144.158 155.5,144.5C 155.265,143.903 154.765,143.57 154,143.5C 151.737,145.436 149.237,146.936 146.5,148C 140.003,149.319 133.503,149.819 127,149.5C 120.001,148.5 113.001,147.5 106,146.5C 101.503,145.339 97.336,143.506 93.5,141C 90.3054,140.819 87.3054,140.319 84.5,139.5C 85.795,138.512 87.1283,137.512 88.5,136.5 Z"/></g>
<g><path style="opacity:0.996" fill="#6164c8" d="M 131.5,163.5 C 134.167,163.833 136.833,164.167 139.5,164.5C 139.5,165.167 139.833,165.5 140.5,165.5C 141.15,167.435 141.483,169.435 141.5,171.5C 127.484,171.833 113.484,171.499 99.5,170.5C 105.194,166.662 111.36,165.329 118,166.5C 118.833,165.667 119.667,164.833 120.5,164C 124.152,163.501 127.818,163.335 131.5,163.5 Z"/></g>
<g><path style="opacity:0.996" fill="#5054a8" d="M 50.5,166.5 C 56.4067,168.215 62.4067,169.548 68.5,170.5C 65.7425,171.818 62.5758,172.485 59,172.5C 51.1452,173.384 43.3119,173.384 35.5,172.5C 39.6702,168.587 44.6702,166.587 50.5,166.5 Z"/></g>
<g><path style="opacity:0.996" fill="#5456ae" d="M 131.5,163.5 C 127.818,163.335 124.152,163.501 120.5,164C 119.667,164.833 118.833,165.667 118,166.5C 111.36,165.329 105.194,166.662 99.5,170.5C 113.484,171.499 127.484,171.833 141.5,171.5C 141.483,169.435 141.15,167.435 140.5,165.5C 143.328,167.983 144.328,170.983 143.5,174.5C 138.934,175.807 134.267,176.474 129.5,176.5C 113.493,176.567 97.4932,176.9 81.5,177.5C 81.31,175.041 82.31,173.374 84.5,172.5C 89.2044,170.478 93.8711,168.478 98.5,166.5C 104.139,165.272 109.805,164.106 115.5,163C 121.016,162.183 126.35,162.349 131.5,163.5 Z"/></g>
<g><path style="opacity:0.996" fill="#393a7a" d="M 45.5,165.5 C 47.4147,165.216 49.0813,165.549 50.5,166.5C 44.6702,166.587 39.6702,168.587 35.5,172.5C 43.3119,173.384 51.1452,173.384 59,172.5C 62.5758,172.485 65.7425,171.818 68.5,170.5C 73.7601,171.632 79.0935,172.299 84.5,172.5C 82.31,173.374 81.31,175.041 81.5,177.5C 97.4932,176.9 113.493,176.567 129.5,176.5C 129.389,177.117 129.056,177.617 128.5,178C 112.5,178.667 96.5,178.667 80.5,178C 80.0426,177.586 79.7093,177.086 79.5,176.5C 75,176.167 70.5,175.833 66,175.5C 55.5001,176.167 45.0001,176.334 34.5,176C 33.0577,175.623 32.0577,174.79 31.5,173.5C 35.2123,169.306 39.8789,166.64 45.5,165.5 Z"/></g>
<g><path style="opacity:0.996" fill="#181937" d="M 31.5,173.5 C 32.0577,174.79 33.0577,175.623 34.5,176C 45.0001,176.334 55.5001,176.167 66,175.5C 70.5,175.833 75,176.167 79.5,176.5C 79.7093,177.086 80.0426,177.586 80.5,178C 96.5,178.667 112.5,178.667 128.5,178C 129.056,177.617 129.389,177.117 129.5,176.5C 134.267,176.474 138.934,175.807 143.5,174.5C 142.71,175.794 141.71,176.961 140.5,178C 128.82,182.812 116.653,184.645 104,183.5C 97.8333,183.333 91.6667,183.167 85.5,183C 82.252,182.372 79.252,181.206 76.5,179.5C 62.1452,180.944 47.8119,180.777 33.5,179C 30.864,177.59 30.1974,175.757 31.5,173.5 Z"/></g>
</svg>
